{"title":"JAV - 3 Girl POV Blowjob And Cum Swap [Uncensored]","uid":10824095,"size":215906744,"categoryP":"porn","categoryS":"movie_clips","magnet":"?xt=urn:btih:21ab6c35d4170fd02e110d3eb069625df39fed39&amp;dn=JAV+-+3+Girl+POV+Blowjob+And+Cum+Swap+%5BUncensored%5D&amp;tr=udp%3A%2F%2Ftracker.openbittorrent.com%3A80&amp;tr=udp%3A%2F%2Fopen.demonii.com%3A1337&amp;tr=udp%3A%2F%2Ftracker.coppersurfer.tk%3A6969&amp;tr=udp%3A%2F%2Fexodus.desync.com%3A6969","seeders":2,"leechers":2,"uploader":"ThousandPeers","files":-1,"time":1408564811,"description":"Format                                   : AVI\nFormat/Info                              : Audio Video Interleave\nFile size                                : 205 MiB\nDuration                                 : 17mn 28s\nOverall bit rate                         : 1 640 Kbps\nWriting application                      : Lavf52.62.0\nWriting library                          : VirtualDub build 32817/release\n\nVideo\nID                                       : 0\nFormat                                   : MPEG-4 Visual\nFormat settings, BVOP                    : 1\nFormat settings, QPel                    : No\nFormat settings, GMC                     : No warppoints\nFormat settings, Matrix                  : Default (H.263)\nMuxing mode                              : Packed bitstream\nCodec ID                                 : DX50\nCodec ID/Hint                            : DivX 5\nDuration                                 : 17mn 28s\nBit rate                                 : 1 500 Kbps\nWidth                                    : 640 pixels\nHeight                                   : 360 pixels\nDisplay aspect ratio                     : 16:9\nFrame rate                               : 29.970 fps\nColor space                              : YUV\nChroma subsampling                       : 4:2:0\nBit depth                                : 8 bits\nScan type                                : Progressive\nCompression mode                         : Lossy\nBits/(Pixel*Frame)                       : 0.217\nStream size                              : 188 MiB (91%)\nWriting library                          : DivX 6.8.5 (UTC 2009-08-20)\n\nAudio\nID                                       : 1\nFormat                                   : MPEG Audio\nFormat version                           : Version 1\nFormat profile                           : Layer 3\nMode                                     : Joint stereo\nMode extension                           : MS Stereo\nCodec ID                                 : 55\nCodec ID/Hint                            : MP3\nDuration                                 : 17mn 28s\nBit rate mode                            : Constant\nBit rate                                 : 128 Kbps\nChannel(s)                               : 2 channels\nSampling rate                            : 44.1 KHz\nCompression mode                         : Lossy\nStream size                              : 16.0 MiB (8%)","torrent":{"xt":"urn:btih:21ab6c35d4170fd02e110d3eb069625df39fed39","amp;dn":"JAV+-+3+Girl+POV+Blowjob+And+Cum+Swap+%5BUncensored%5D","amp;tr":["udp%3A%2F%2Ftracker.openbittorrent.com%3A80","udp%3A%2F%2Fopen.demonii.com%3A1337","udp%3A%2F%2Ftracker.coppersurfer.tk%3A6969","udp%3A%2F%2Fexodus.desync.com%3A6969"],"infoHash":"21ab6c35d4170fd02e110d3eb069625df39fed39","infoHashBuffer":{"type":"Buffer","data":[33,171,108,53,212,23,15,208,46,17,13,62,176,105,98,93,243,159,237,57]},"announce":[],"urlList":[]}}